# xmcd
#
# Track frame offsets: 
#        150
#        21225
#        39327
#        59102
#        76195
#        94177
#        121407
#        140495
#        159827
#        182425
#        209122
#
# Disc length: 3027 seconds
#
# Revision: 1
# Processed by: cddbd v1.4PL0 Copyright (c) Steve Scherf et al.
# Submitted via: ExactAudioCopy v0.90b2
#
DISCID=930bd10b
DTITLE=Portishead - Portishead
DYEAR=1997
DGENRE=Trip-Hop
TTITLE0=Cowboys
TTITLE1=All mine
TTITLE2=Undenied
TTITLE3=Half day closing
TTITLE4=Over
TTITLE5=Humming
TTITLE6=Mourning air
TTITLE7=Seven months
TTITLE8=Only you
TTITLE9=Elysum
TTITLE10=Western eyes
EXTD=
EXTT0=
EXTT1=
EXTT2=
EXTT3=
EXTT4=
EXTT5=
EXTT6=
EXTT7=
EXTT8=
EXTT9=
EXTT10=
PLAYORDER=
